<?xml version="1.0" encoding="utf-8"?>
<!-- Generator: Adobe Illustrator 24.3.0, SVG Export Plug-In . SVG Version: 6.00 Build 0)  -->
<svg version="1.1" id="GSynergy_Logo" xmlns="http://www.w3.org/2000/svg" xmlns:xlink="http://www.w3.org/1999/xlink" x="0px"
	 y="0px" viewBox="0 0 629.2 199.9" style="enable-background:new 0 0 629.2 199.9;" xml:space="preserve">
<style type="text/css">
	.st0{display:none;}
	.st1{display:inline;fill:#6D6E70;}
	.st2{display:none;fill:#6D6E70;enable-background:new    ;}
	.st3{font-family:'Avenir-Light';}
	.st4{font-size:22.5px;}
	.st5{fill:#FFFFFF;}
	.st6{fill:#2F8A9C;}
	.st7{fill:none;stroke:#2F8A9C;stroke-width:13;stroke-miterlimit:10;}
	.st8{font-size:36px;}
</style>
<g id="Synergy_font">
	<g id="Synergy_font_00000099659795681640443090000006373611806586270098_" class="st0">
		<path class="st1" d="M146.6,106.8c-4.8,0-9.1-0.6-13-1.8s-7.3-2.7-10.2-4.5s-5.4-3.6-7.4-5.4s-3.5-3.3-4.6-4.4l8.3-12.7
			c1.1,1.2,2.5,2.5,4.2,4.1s3.7,3.2,6,4.7s4.8,2.8,7.7,3.9s6,1.6,9.4,1.6c3.2,0,6.1-0.5,8.7-1.6c2.6-1.1,4.6-2.7,6.1-4.9
			c1.5-2.1,2.3-4.8,2.3-8c0-2.8-0.6-5.1-1.7-7.1c-1.1-2-2.8-3.7-4.9-5.1c-2.1-1.5-4.6-2.9-7.6-4.2s-6.2-2.7-9.8-4.2
			c-2.6-1.1-5.1-2.3-7.6-3.8s-4.7-3.2-6.8-5.1c-2-2-3.7-4.3-4.9-6.9s-1.8-5.7-1.8-9.1c0-3.7,0.7-7.3,2.2-10.6c1.5-3.4,3.5-6.4,6.2-9
			c2.7-2.6,5.9-4.7,9.6-6.2s7.9-2.3,12.4-2.3c3.7,0,7.3,0.5,10.8,1.6s6.7,2.5,9.6,4.2c2.9,1.7,5.3,3.5,7.2,5.5l-6.8,12
			c-1.5-1.6-3.3-3-5.5-4.4c-2.1-1.4-4.5-2.5-7-3.3s-5.2-1.3-8-1.3c-3.3,0-6.1,0.6-8.3,1.9c-2.3,1.3-4,3-5.2,5
			c-1.2,2.1-1.8,4.3-1.8,6.8c0,2,0.4,3.8,1.3,5.2c0.9,1.5,2,2.7,3.5,3.8c1.5,1,3.2,2,5.2,2.8c2,0.9,4.1,1.7,6.3,2.6
			c4.4,1.8,8.4,3.6,12.1,5.4c3.7,1.8,6.9,3.8,9.6,6.1c2.7,2.3,4.8,5,6.3,8.2c1.5,3.2,2.2,6.9,2.2,11.3c0,6.2-1.5,11.5-4.4,15.9
			s-7,7.7-12.2,10.1C159.3,105.6,153.4,106.8,146.6,106.8z"/>
		<path class="st1" d="M200.5,136.1l18.1-36.7l-29.2-56h17l20.8,41.4l18.5-41.4h17L217.5,136L200.5,136.1L200.5,136.1z"/>
		<path class="st1" d="M275.3,104.9V43.4h14.9v7.4c2.2-2.7,5-4.9,8.5-6.7c3.5-1.7,7.5-2.6,12.1-2.6c4.8,0,8.9,1,12.5,3
			c3.5,2,6.3,4.9,8.2,8.6c2,3.7,2.9,8.1,2.9,13.1v38.7h-14.9V69.3c0-5.1-1.3-9.1-3.8-11.9s-6.1-4.2-10.5-4.2c-3.1,0-5.8,0.6-8,1.9
			s-3.9,2.9-5.1,5s-1.8,4.4-1.8,7v37.7L275.3,104.9L275.3,104.9z"/>
		<path class="st1" d="M385.8,106.8c-6.6,0-12.4-1.4-17.6-4.3c-5.2-2.8-9.3-6.7-12.3-11.6s-4.5-10.5-4.5-16.6
			c0-4.6,0.8-8.9,2.5-12.8s4.1-7.4,7.1-10.4c3.1-3,6.6-5.3,10.6-7s8.4-2.5,13.1-2.5c6.4,0,12,1.3,16.8,4c4.8,2.6,8.6,6.3,11.3,11.1
			c2.7,4.7,4,10.2,4,16.4c0,0.5-0.1,1-0.1,1.4s-0.1,1-0.2,1.7h-50c0,3.7,0.8,6.9,2.5,9.8c1.7,2.8,4,5,7.1,6.6
			c3,1.6,6.5,2.4,10.4,2.4c3.7,0,7-0.8,9.9-2.2c2.9-1.5,5.5-3.8,7.9-6.9l10.9,5.6c-2.9,4.9-7,8.7-12.2,11.4
			C397.9,105.4,392.1,106.8,385.8,106.8z M367.2,66.6h34.9c-0.5-2.8-1.6-5.2-3.2-7.3c-1.6-2-3.6-3.6-6.1-4.8
			c-2.4-1.1-5.2-1.7-8.2-1.7c-3.2,0-6,0.6-8.5,1.6c-2.5,1.1-4.5,2.7-6,4.7C368.7,61.4,367.7,63.8,367.2,66.6z"/>
		<path class="st1" d="M435,104.9V43.4h14.9v9c2.2-3.5,4.9-6.2,8.1-8.1s6.8-2.8,10.7-2.8c2,0,4.1,0.3,6.2,0.8c2.1,0.6,4,1.3,5.5,2.2
			l-6.2,12.6c-1.3-0.8-2.8-1.5-4.5-1.9s-3.4-0.7-4.8-0.7c-2.5,0-4.9,0.7-7.2,1.9c-2.3,1.3-4.2,3-5.6,5.1s-2.1,4.3-2.1,6.7v36.6
			L435,104.9L435,104.9z"/>
		<path class="st1" d="M521.5,137.9c-8.1,0-14.9-1.5-20.4-4.6c-5.5-3-9.6-7.5-12.2-13.3l12.2-5.9c1.8,3.3,4.5,6,8.2,8
			c3.7,2,7.7,3,12.2,3c3.9,0,7.3-0.8,10.4-2.3c3-1.6,5.4-3.8,7.1-6.6c1.7-2.9,2.6-6.2,2.6-10.1V95.2c-2.7,3.7-6,6.6-10,8.7
			s-8.3,3.1-13,3.1c-5.6,0-10.7-1.4-15.3-4.2s-8.3-6.6-11-11.5s-4.1-10.6-4.1-16.9c0-6.2,1.3-11.8,4-16.7s6.3-8.8,10.9-11.6
			c4.6-2.8,9.9-4.3,15.8-4.3c4.7,0,9.1,1,13.1,3s7.2,4.8,9.6,8.3v-9.7h14.9v63.1c0,6.3-1.3,11.8-4,16.5c-2.6,4.7-6.6,8.3-11.7,10.9
			C535.6,136.6,529.2,137.9,521.5,137.9z M522.8,94c3.7,0,7-0.8,9.9-2.5s5.2-4,6.8-7s2.4-6.4,2.4-10.2c0-3.9-0.8-7.3-2.5-10.3
			c-1.6-3-3.9-5.3-6.8-7c-2.9-1.7-6.1-2.6-9.8-2.6s-7,0.9-9.8,2.6c-2.9,1.7-5.1,4.1-6.8,7.1c-1.7,3-2.5,6.4-2.5,10.3
			c0,3.8,0.8,7.2,2.4,10.2s3.9,5.3,6.8,7C515.9,93.2,519.2,94,522.8,94z"/>
		<path class="st1" d="M579.9,136.1l18-36.7l-29.2-56h17l20.8,41.4l18.6-41.4h17l-45.2,92.7H579.9z"/>
	</g>
</g>
<text id="Tagline_Short" transform="matrix(1 0 0 1 200.0665 165.1966)" class="st2 st3 st4">We Engineer Business Transformations</text>
<g>
	<g id="G">
		<g>
			<path class="st5" d="M51.8,19.1c13.4-1,25.4,5.4,32.3,15.5l15.8-10.4C89.9,9.4,73-0.2,53.8,0C23.6,0.4-0.8,25.8,0,56
				c0.5,21.9,14.1,40.7,33.2,48.9l15.2-15.1c-18.1-3.3-31.8-20.6-29.1-40.1C21.6,33.2,35.3,20.4,51.8,19.1z"/>
		</g>
		<g>
			<path class="st6" d="M33.3,104.9h21.3c1.5,0,2.9-0.6,4-1.6l27-26.3L74.1,64.4L33.3,104.9z"/>
			<path class="st6" d="M95.1,62.4v42.4H83.5c-2.2,0-4-1.8-4-4V62.4H95.1z"/>
			<path class="st6" d="M95.1,70.2H50.5c-2.2,0-4-1.8-4-4V54.6h48.6V70.2z"/>
		</g>
	</g>
	<g id="Synergy_vector">
		<path class="st5" d="M146.6,106.8c-4.8,0-9.1-0.6-13-1.8s-7.3-2.7-10.2-4.5s-5.4-3.6-7.4-5.4s-3.5-3.3-4.6-4.4l8.3-12.7
			c1.1,1.2,2.5,2.5,4.2,4.1s3.7,3.2,6,4.7s4.8,2.8,7.7,3.9s6,1.6,9.4,1.6c3.2,0,6.1-0.5,8.7-1.7c2.6-1.1,4.6-2.7,6.1-4.9
			c1.5-2.1,2.3-4.8,2.3-8c0-2.8-0.6-5.1-1.7-7.1c-1.1-2-2.8-3.7-4.9-5.1c-2.1-1.5-4.6-2.9-7.6-4.2s-6.2-2.7-9.8-4.2
			c-2.6-1.1-5.1-2.3-7.6-3.8s-4.7-3.2-6.8-5.1c-2-2-3.7-4.3-4.9-6.9s-1.8-5.7-1.8-9.1c0-3.7,0.7-7.3,2.2-10.6c1.5-3.4,3.5-6.4,6.2-9
			c2.7-2.6,5.9-4.7,9.6-6.2s7.9-2.3,12.4-2.3c3.7,0,7.3,0.5,10.8,1.6s6.7,2.5,9.6,4.2c2.9,1.7,5.3,3.5,7.2,5.5l-6.8,12
			c-1.5-1.6-3.3-3-5.5-4.4c-2.1-1.4-4.5-2.5-7-3.3s-5.2-1.3-8-1.3c-3.3,0-6.1,0.6-8.3,1.9c-2.3,1.3-4,3-5.2,5
			c-1.2,2.1-1.8,4.3-1.8,6.8c0,2,0.4,3.8,1.3,5.2c0.9,1.5,2,2.7,3.5,3.8c1.5,1,3.2,2,5.2,2.8c2,0.9,4.1,1.7,6.3,2.6
			c4.4,1.8,8.4,3.6,12.1,5.4c3.7,1.8,6.9,3.8,9.6,6.1c2.7,2.3,4.8,5,6.3,8.2s2.2,6.9,2.2,11.3c0,6.2-1.5,11.5-4.4,15.9
			s-7,7.7-12.2,10C159.4,105.6,153.4,106.8,146.6,106.8z"/>
		<path class="st5" d="M199.8,136.1l18.1-36.7l-29.2-56h17l20.8,41.4L245,43.4h17L216.8,136L199.8,136.1L199.8,136.1z"/>
		<path class="st5" d="M274.6,104.9V43.4h14.9v7.4c2.2-2.7,5-4.9,8.5-6.7c3.5-1.7,7.5-2.6,12.1-2.6c4.8,0,8.9,1,12.4,3
			s6.3,4.9,8.2,8.6c2,3.7,2.9,8.1,2.9,13.1v38.7h-14.9V69.3c0-5.1-1.3-9.1-3.8-11.9s-6.1-4.2-10.5-4.2c-3.1,0-5.8,0.6-8,1.9
			s-3.9,2.9-5.1,5s-1.8,4.4-1.8,7v37.7L274.6,104.9L274.6,104.9z"/>
		<path class="st5" d="M385.1,106.8c-6.6,0-12.4-1.4-17.6-4.3c-5.2-2.8-9.3-6.7-12.3-11.6s-4.5-10.5-4.5-16.6
			c0-4.6,0.8-8.9,2.5-12.8s4.1-7.4,7.1-10.4c3.1-3,6.6-5.3,10.6-7s8.4-2.5,13.1-2.5c6.4,0,12,1.3,16.8,4c4.8,2.6,8.6,6.3,11.3,11.1
			c2.7,4.7,4,10.2,4,16.4c0,0.5-0.1,1-0.1,1.4s-0.1,1-0.2,1.7h-50c0,3.7,0.8,6.9,2.5,9.8c1.7,2.8,4,5.1,7.1,6.6
			c3,1.6,6.5,2.4,10.4,2.4c3.7,0,7-0.8,9.9-2.2c2.9-1.5,5.5-3.8,7.9-6.9l10.9,5.6c-2.9,4.9-7,8.7-12.2,11.4
			C397.2,105.4,391.4,106.8,385.1,106.8z M366.5,66.6h34.9c-0.5-2.8-1.6-5.2-3.2-7.3c-1.6-2-3.6-3.6-6.1-4.8
			c-2.4-1.1-5.2-1.7-8.2-1.7c-3.2,0-6,0.6-8.5,1.6c-2.5,1.1-4.5,2.7-6,4.7C368,61.4,367,63.8,366.5,66.6z"/>
		<path class="st5" d="M434,104.9V43.4h14.9v9c2.2-3.5,4.9-6.2,8.1-8.1s6.8-2.8,10.7-2.8c2,0,4.1,0.3,6.2,0.8c2.1,0.6,4,1.3,5.5,2.2
			l-6.2,12.6c-1.3-0.8-2.8-1.5-4.5-1.9s-3.4-0.7-4.8-0.7c-2.5,0-4.9,0.7-7.2,1.9c-2.3,1.3-4.2,3-5.6,5.1s-2.1,4.3-2.1,6.7v36.6
			L434,104.9L434,104.9z"/>
		<path class="st5" d="M567,136.1l18.1-36.7l-29.2-56h17l20.8,41.4l18.5-41.4h17L584,136L567,136.1L567,136.1z"/>
	</g>
	<g id="g">
		<ellipse class="st7" cx="515.4" cy="66.6" rx="20.7" ry="21.2"/>
		<g>
			<path class="st6" d="M533,112.6c1.4,0,2.6,1.2,2.6,2.6v6.3c0,1.4-1.2,2.6-2.6,2.6h-35.2c-1.4,0-2.6-1.2-2.6-2.6v-6.3
				c0-1.4,1.2-2.6,2.6-2.6H533 M533,100.6h-35.2c-8,0-14.6,6.6-14.6,14.6v6.3c0,8,6.6,14.6,14.6,14.6H533c8,0,14.6-6.6,14.6-14.6
				v-6.3C547.6,107.2,541,100.6,533,100.6L533,100.6z"/>
		</g>
	</g>
	<text id="Tagline_Long" transform="matrix(1 0 0 1 7.0465 183.4388)" class="st5 st3 st8">We Engineer Business Transformations</text>
</g>
</svg>
